<svg width="24" height="24" viewBox="0 0 24 24" fill="none" xmlns="http://www.w3.org/2000/svg">
<mask id="mask0_354_514" style="mask-type:alpha" maskUnits="userSpaceOnUse" x="0" y="0" width="24" height="24">
<g clip-path="url(#clip0_354_514)">
<path d="M12 20C16.4183 20 20 16.4183 20 12C20 7.5817 16.4183 4 12 4C7.5817 4 4 7.5817 4 12C4 16.4183 7.5817 20 12 20Z" fill="white" stroke="white" stroke-width="2" stroke-linejoin="round"/>
<path d="M18.7825 7.75488C20.8921 7.93898 22.3398 8.58618 22.6257 9.65298C23.1974 11.7868 18.9039 14.7913 13.0357 16.3637C7.16764 17.936 1.94707 17.4808 1.3753 15.347C1.07574 14.229 2.11171 12.872 4.00996 11.6072" stroke="white" stroke-width="2" stroke-linecap="round" stroke-linejoin="round"/>
<path d="M18.7827 7.75488C20.8923 7.93898 22.34 8.58618 22.6258 9.65298C23.1976 11.7868 18.904 14.7913 13.0359 16.3637C7.16776 17.936 1.94719 17.4808 1.37543 15.347C1.07586 14.229 1.60176 13.2648 3.5 12" stroke="white" stroke-width="2" stroke-linecap="round" stroke-linejoin="round"/>
</g>
</mask>
<g mask="url(#mask0_354_514)">
<path d="M21 14L27 9.5H24L23 8L22 7.5L21.5 6.5H29.5V13L24.5 16.5L18 20L20 17L21 14Z" fill="#D9D9D9"/>
</g>
<defs>
<clipPath id="clip0_354_514">
<rect width="24" height="24" fill="white"/>
</clipPath>
</defs>
</svg>
