<svg width="245" height="281" viewBox="0 0 245 281" fill="none" xmlns="http://www.w3.org/2000/svg">
<path d="M141.221 0C144.477 0 147.326 0.950245 149.767 2.85074C152.209 4.47972 153.837 6.78745 154.651 9.77393L180.243 86.5993C170.61 90.0049 160.616 94.0864 150.386 98.8135L135.116 50.4986C134.031 46.6976 132.81 42.8966 131.453 39.0957C130.368 35.0232 129.283 31.2222 128.198 27.6928H116.802C115.717 31.2222 114.632 35.0232 113.546 39.0957C112.461 42.8966 111.24 46.6976 109.884 50.4986L82.215 138.045C81.3499 138.642 80.4849 139.243 79.6201 139.848C63.6215 151.035 48.8115 162.752 35.4291 174.642L90.3488 9.77393C91.1628 6.78745 92.7907 4.47972 95.2325 2.85074C97.6744 0.950245 100.523 0 103.779 0H141.221Z" fill="url(#paint0_linear_94_905)"/>
<path d="M156.072 116.806C166.454 111.929 176.532 107.77 186.157 104.355L245 281H207.965L199.73 254.945L217.903 242.432C219.105 241.604 218.506 239.719 217.047 239.738L195.014 240.021L180.164 193.035H64.8358L37.0349 281H0L22.6141 213.113C31.0547 204.116 40.5088 195.007 50.8721 185.971C57.7619 179.963 65.0536 173.988 72.7166 168.099C75.3399 166.083 78.0068 164.078 80.7159 162.084H170.382L156.072 116.806Z" fill="url(#paint1_linear_94_905)"/>
<defs>
<linearGradient id="paint0_linear_94_905" x1="122.649" y1="-125.754" x2="122.649" y2="362.745" gradientUnits="userSpaceOnUse">
<stop stop-color="#00ADEB"/>
<stop offset="0.845" stop-color="white"/>
</linearGradient>
<linearGradient id="paint1_linear_94_905" x1="122.649" y1="-125.754" x2="122.649" y2="362.745" gradientUnits="userSpaceOnUse">
<stop stop-color="#00ADEB"/>
<stop offset="0.845" stop-color="white"/>
</linearGradient>
</defs>
</svg>
